HIERARCHY
ROOT hip
{
  OFFSET 0 0 0
  CHANNELS 6 Xposition Yposition Zposition Zrotation Yrotation Xrotation
  JOINT abdomen
  {
    OFFSET 0 20.6881 -0.73152
    CHANNELS 3 Zrotation Xrotation Yrotation
    JOINT chest
    {
      OFFSET 0 11.7043 -0.48768
      CHANNELS 3 Zrotation Xrotation Yrotation
      JOINT neck
      {
        OFFSET 0 22.1894 -2.19456
        CHANNELS 3 Zrotation Xrotation Yrotation
        JOINT head
        {
          OFFSET -0.24384 7.07133 1.2192
          CHANNELS 3 Zrotation Xrotation Yrotation
          JOINT leftEye
          {
            OFFSET 4.14528 8.04674 8.04672
            CHANNELS 3 Zrotation Xrotation Yrotation
            End Site
            {
              OFFSET 1 0 0
            }
          }
          JOINT rightEye
          {
            OFFSET -3.6576 8.04674 8.04672
            CHANNELS 3 Zrotation Xrotation Yrotation
            End Site
            {
              OFFSET 1 0 0
            }
          }
        }
      }
      JOINT rCollar
      {
        OFFSET -2.68224 19.2634 -4.8768
        CHANNELS 3 Zrotation Xrotation Yrotation
        JOINT rShldr
        {
          OFFSET -8.77824 -1.95073 1.46304
          CHANNELS 3 Zrotation Xrotation Yrotation
          JOINT rForeArm
          {
            OFFSET -28.1742 -1.7115 0.48768
            CHANNELS 3 Zrotation Xrotation Yrotation
            JOINT rHand
            {
              OFFSET -22.5879 0.773209 7.07136
              CHANNELS 3 Zrotation Xrotation Yrotation
              JOINT rThumb1
              {
                OFFSET -1.2192 -0.487915 3.41376
                CHANNELS 3 Zrotation Xrotation Yrotation
                JOINT rThumb2
                {
                  OFFSET -3.37035 -0.52449 3.41376
                  CHANNELS 3 Zrotation Xrotation Yrotation
                  End Site
                  {
                    OFFSET -1.78271 -1.18214 1.43049
                  }
                }
              }
              JOINT rIndex1
              {
                OFFSET -7.75947 0.938293 5.60832
                CHANNELS 3 Zrotation Xrotation Yrotation
                JOINT rIndex2
                {
                  OFFSET -2.54057 -0.884171 1.56538
                  CHANNELS 3 Zrotation Xrotation Yrotation
                  End Site
                  {
                    OFFSET -1.62519 -0.234802 1.16502
                  }
                }
              }
              JOINT rMid1
              {
                OFFSET -8.24714 1.18213 3.41376
                CHANNELS 3 Zrotation Xrotation Yrotation
                JOINT rMid2
                {
                  OFFSET -3.10165 -0.590103 1.0647
                  CHANNELS 3 Zrotation Xrotation Yrotation
                  End Site
                  {
                    OFFSET -2.48547 -0.328903 0.83742
                  }
                }
              }
              JOINT rRing1
              {
                OFFSET -8.82822 0.546677 1.51678
                CHANNELS 3 Zrotation Xrotation Yrotation
                JOINT rRing2
                {
                  OFFSET -2.60934 -0.819778 -0.0198488
                  CHANNELS 3 Zrotation Xrotation Yrotation
                  End Site
                  {
                    OFFSET -2.33842 -0.294052 0.168128
                  }
                }
              }
              JOINT rPinky1
              {
                OFFSET -8.27202 -0.0477905 -0.4584
                CHANNELS 3 Zrotation Xrotation Yrotation
                JOINT rPinky2
                {
                  OFFSET -1.82734 -0.647385 -0.700984
                  CHANNELS 3 Zrotation Xrotation Yrotation
                  End Site
                  {
                    OFFSET -1.69225 -0.51767 -0.607171
                  }
                }
              }
            }
          }
        }
      }
      JOINT lCollar
      {
        OFFSET 2.68224 19.2634 -4.8768
        CHANNELS 3 Zrotation Xrotation Yrotation
        JOINT lShldr
        {
          OFFSET 8.77824 -1.95073 1.46304
          CHANNELS 3 Zrotation Xrotation Yrotation
          JOINT lForeArm
          {
            OFFSET 28.1742 -1.7115 0.48768
            CHANNELS 3 Zrotation Xrotation Yrotation
            JOINT lHand
            {
              OFFSET 22.5879 0.773209 7.07136
              CHANNELS 3 Zrotation Xrotation Yrotation
              JOINT lThumb1
              {
                OFFSET 1.2192 -0.487915 3.41376
                CHANNELS 3 Zrotation Xrotation Yrotation
                JOINT lThumb2
                {
                  OFFSET 3.37035 -0.52449 3.41376
                  CHANNELS 3 Zrotation Xrotation Yrotation
                  End Site
                  {
                    OFFSET 1.78271 -1.18214 1.43049
                  }
                }
              }
              JOINT lIndex1
              {
                OFFSET 7.75947 0.938293 5.60832
                CHANNELS 3 Zrotation Xrotation Yrotation
                JOINT lIndex2
                {
                  OFFSET 2.54057 -0.884171 1.56538
                  CHANNELS 3 Zrotation Xrotation Yrotation
                  End Site
                  {
                    OFFSET 1.62519 -0.234802 1.16502
                  }
                }
              }
              JOINT lMid1
              {
                OFFSET 8.24714 1.18213 3.41376
                CHANNELS 3 Zrotation Xrotation Yrotation
                JOINT lMid2
                {
                  OFFSET 3.10165 -0.590103 1.0647
                  CHANNELS 3 Zrotation Xrotation Yrotation
                  End Site
                  {
                    OFFSET 2.48547 -0.328903 0.83742
                  }
                }
              }
              JOINT lRing1
              {
                OFFSET 8.82822 0.546677 1.51678
                CHANNELS 3 Zrotation Xrotation Yrotation
                JOINT lRing2
                {
                  OFFSET 2.60934 -0.819778 -0.0198488
                  CHANNELS 3 Zrotation Xrotation Yrotation
                  End Site
                  {
                    OFFSET 2.33842 -0.294052 0.168128
                  }
                }
              }
              JOINT lPinky1
              {
                OFFSET 8.27202 -0.0477905 -0.4584
                CHANNELS 3 Zrotation Xrotation Yrotation
                JOINT lPinky2
                {
                  OFFSET 1.82734 -0.647385 -0.700984
                  CHANNELS 3 Zrotation Xrotation Yrotation
                  End Site
                  {
                    OFFSET 1.69225 -0.51767 -0.607171
                  }
                }
              }
            }
          }
        }
      }
    }
  }
  JOINT rButtock
  {
    OFFSET -8.77824 4.35084 1.2192
    CHANNELS 3 Zrotation Xrotation Yrotation
    JOINT rThigh
    {
      OFFSET 0 -1.70687 -2.19456
      CHANNELS 3 Zrotation Xrotation Yrotation
      JOINT rShin
      {
        OFFSET 0 -36.8199 0.73152
        CHANNELS 3 Zrotation Xrotation Yrotation
        JOINT rFoot
        {
          OFFSET 0.73152 -45.1104 -5.12064
          CHANNELS 3 Zrotation Xrotation Yrotation
          End Site
          {
            OFFSET -1.1221 -3.69964 12.103
          }
        }
      }
    }
  }
  JOINT lButtock
  {
    OFFSET 8.77824 4.35084 1.2192
    CHANNELS 3 Zrotation Xrotation Yrotation
    JOINT lThigh
    {
      OFFSET 0 -1.70687 -2.19456
      CHANNELS 3 Zrotation Xrotation Yrotation
      JOINT lShin
      {
        OFFSET 0 -36.8199 0.73152
        CHANNELS 3 Zrotation Xrotation Yrotation
        JOINT lFoot
        {
          OFFSET -0.73152 -45.1104 -5.12064
          CHANNELS 3 Zrotation Xrotation Yrotation
          End Site
          {
            OFFSET 1.1221 -3.69964 12.103
          }
        }
      }
    }
  }
}
MOTION
Frames:	5
Frame Time:	0.03333
0.0 0.0 0.0 0.0 0.0 0.0 0.0 0.0 0.0 0.0 0.0 0.0 0.0 0.0 0.0 0.0 0.0 0.0 0.0 0.0 0.0 0.0 0.0 0.0 0.0 0.0 0.0 0.0 0.0 0.0 0.0 0.0 0.0 0.0 0.0 0.0 0.0 0.0 0.0 0.0 0.0 0.0 0.0 0.0 0.0 0.0 0.0 0.0 0.0 0.0 0.0 0.0 0.0 0.0 0.0 0.0 0.0 0.0 0.0 0.0 0.0 0.0 0.0 0.0 0.0 0.0 0.0 0.0 0.0 0.0 0.0 0.0 0.0 0.0 0.0 0.0 0.0 0.0 0.0 0.0 0.0 0.0 0.0 0.0 0.0 0.0 0.0 0.0 0.0 0.0 0.0 0.0 0.0 0.0 0.0 0.0 0.0 0.0 0.0 0.0 0.0 0.0 0.0 0.0 0.0 0.0 0.0 0.0 0.0 0.0 0.0 0.0 0.0 0.0 0.0 0.0 0.0 0.0 0.0 0.0 0.0 0.0 0.0 0.0 0.0 0.0 0.0 0.0 0.0 0.0 0.0 0.0
-0.135 61.8437 0.0985 -179.905092 68.029514 179.51891 -0.760255 3.469734 12.366826 -7.728787 4.141462 47.858104 8.735093 -13.526593 76.568272 -43.016319 8.111298 -88.142949 7.673594 -1.530013 -22.52073 13.270181 -7.502017 -58.811647 73.585953 5.868378 4.462286 18.431564 -43.805606 7.199147 -2.685565 -27.708827 147.501986 46.305725 -44.377691 -31.783546 168.891274 4.285245 51.94094 154.908987 7.943968 -78.955555 48.246585 69.171398 -51.522637 74.497599 -49.851686 -123.857389 73.698626 37.32173 -105.825891 -142.367386 5.02706 151.139831 85.993062 23.621957 -86.218028 21.654395 -20.268349 3.912705 19.624613 12.585851 -64.049194 80.045481 78.939845 -41.65176 -83.151186 -28.146062 -5.212719 80.127213 85.774524 -90.688032 -1.720587 0.00555 -158.391819 -25.990093 -29.143575 37.398725 170.258525 13.467017 -65.638216 -87.248876 -76.996006 -47.898744 -141.009701 -40.288781 -129.842629 -29.714307 -1.462573 64.906366 112.000737 75.930087 -67.478709 21.656114 -40.211648 -41.306167 -83.758624 -1.47318 78.774035 -7.767232 27.007623 0.575635 22.839405 15.016099 85.85392 10.525681 -28.402113 5.001641 24.082567 -42.100225 32.399934 -2.210607 47.507656 1.600729 6.762674 4.815628 128.893238 76.71543 45.128704 -82.891116 1.508285 -51.716406 -0.017531 -3.497787 52.701806 2.741621 -6.222609 0.411742 -107.818311 74.175868 28.576053 -95.605012
-0.8215999999999999 59.666 0.5487 -10.486714 -13.771245 1.351753 4.42189 11.978256 63.982142 -3.311872 -2.870391 -51.403423 -4.99245 10.726961 -44.310958 23.964712 -9.33582 61.884571 20.445416 3.171172 17.452918 2.661553 0.248053 10.647135 -150.949156 -18.439153 168.717383 143.750539 -27.637672 179.545806 -8.132431 -24.700947 104.300243 -0.649797 -27.551031 -5.796785 -6.271983 14.709006 -13.164442 -34.989146 11.476254 37.691261 -144.535195 -20.192368 119.122126 -154.289587 -15.718703 97.676401 -165.200367 -6.884328 162.899887 -91.520083 82.967654 90.702979 -1.998907 -0.629982 -6.805994 -124.555876 60.97345 121.04265 -115.111432 -22.918701 -108.645817 22.485437 -49.549105 -0.013015 9.597194 34.608406 -12.454049 -63.424011 -25.33811 -71.863184 178.390041 26.540367 -69.252784 -163.849091 -20.111049 -140.487566 167.268476 -3.255456 -93.821387 -0.933404 -58.767615 -8.24216 6.422815 -11.993776 8.657088 75.945345 32.132141 -59.133288 133.9241 53.336188 -118.850069 39.923273 63.91324 -19.825989 86.385055 -74.058833 92.490301 140.52669 -14.999685 164.781535 83.343216 -59.280998 65.351966 -55.733184 62.272606 30.133173 1.930667 0.834739 -2.511892 -16.890559 -12.108483 -98.558137 -51.303137 4.457434 74.89103 -80.255245 -13.004302 5.808884 63.923821 14.741814 46.404198 -63.398642 -42.423663 -142.712855 -77.798099 -28.29466 -161.176707 -133.104121 -35.147465 114.428365
-0.7069 58.7616 1.0238 -6.993953 -19.987012 0.638681 0.117829 7.171348 111.610678 -5.692791 -3.140889 -107.826091 -21.99913 16.254927 -70.838935 22.717932 21.463982 106.578859 -12.226108 -0.005077 0.047404 -5.347259 -0.635019 13.5354 85.95746 -78.806867 65.84741 -2.756984 5.280849 -42.558493 119.990121 -30.942326 -47.122935 -71.125401 66.006151 46.446427 -178.408583 12.94904 105.335625 117.096078 -62.052399 95.108759 -120.652114 51.50648 94.86106 -69.044652 53.906516 30.646426 -158.292712 13.958893 144.978994 -166.96183 -57.261888 139.675763 21.269464 -26.150016 9.788244 -54.550299 -81.801957 -34.929305 -109.771097 -30.53953 -56.300971 -109.298686 56.918815 -114.073189 -3.689803 37.136822 3.22576 118.583819 14.26275 -102.825948 -3.647832 -32.206896 106.792718 -171.71845 -12.480829 -140.004412 152.279256 2.965326 -99.16529 86.878445 3.109714 -22.102674 -10.513289 -2.236825 -9.279396 86.738384 69.791856 -50.753071 145.286046 39.113623 -136.454506 161.537593 -7.868837 -141.487019 66.971704 -74.244217 66.094052 39.496283 -54.479097 46.158852 179.506559 38.965081 147.497263 39.258083 21.030061 -23.549894 115.291259 62.20195 67.315954 168.275817 50.048304 -180.0 33.367309 -74.960154 -2.037471 82.146374 46.16532 173.924633 -0.211615 1.341178 8.967203 60.511697 -65.356522 62.796961 60.596503 67.566828 31.654365 -79.247395 -71.422694 174.194353
-1.1362 58.864700000000006 1.8407 -8.538287 -24.787033 -0.16567 6.564074 13.66438 85.877863 -8.712065 4.335653 -72.166003 3.27984 13.226895 32.27534 -7.257483 -14.334792 -4.555926 -8.967372 -3.238251 39.645765 3.995775 0.463548 13.229307 -9.680153 33.584792 17.839548 100.460981 -43.481508 45.528866 133.66055 -6.415921 -1.769215 -82.769927 61.429804 53.519372 -167.765958 8.48181 101.987314 -170.543489 -30.034016 114.020891 -162.565366 -10.414758 124.789364 -169.338759 59.26196 145.020015 -86.839376 65.900309 83.9759 -20.960045 45.578847 0.669719 -59.187509 54.143681 97.627253 -132.927208 -35.059199 -154.350667 5.170678 27.616585 -29.004131 154.286908 -37.531464 125.554701 11.262577 49.518483 -13.771544 104.199088 14.217509 -89.32765 -77.814939 -21.557982 86.102376 173.400046 40.437831 -138.186569 77.705456 48.068106 -39.540219 -21.94386 -16.795494 -30.230537 84.613877 38.456072 -77.912368 -103.844245 88.458245 111.990598 13.123084 1.397172 8.533193 168.107651 -49.977941 -139.663837 22.819302 -11.58837 -31.032342 102.176261 -23.060085 133.765949 135.67979 -2.453086 124.634909 142.00759 24.384243 83.97846 -160.225434 83.560135 0.0 137.15856 40.983222 -68.05147 -79.115107 -5.935269 72.15934 -65.943996 -21.429654 -7.717407 -0.525978 10.788275 -0.0 81.882545 -50.924529 -0.0 -82.398981 10.519144 -63.154555 162.269908 21.279518 -157.398462
